<svg xmlns="http://www.w3.org/2000/svg" width="870.2" height="512.5" viewBox="0 0 870.2 512.5">
  <path class="uiSVGImageBaseColor" fill="#009de0" d="M870.2 304.3c0-113.8-92.3-206.1-206.1-206.1-14.8 0-29.3 1.6-43.2 4.6C574.2 37 497.4 0 410.5 0 288.8 0 186.9 89.5 159.6 203.5h-.1C71.4 203.5 0 268.9 0 356.9c0 87.4 70.3 154.5 157.5 155.6l509.4-1.1c112.5-1.5 203.3-94.2 203.3-207.1z"/>
  <circle cx="156" cy="358.1" r="22.8" fill="#fff" />
  <path class="uiSVGImageLineColor2" fill="#505156" d="M232.6 358.1c0-11.4 8.5-20.8 19.4-22.4-2.5-10.6-6.7-20.6-12.3-29.6-8.9 7-21.8 6.5-30.1-1.7-8.2-8.2-8.7-21.2-1.7-30.1-9-5.6-18.9-9.8-29.5-12.2-1.3 11.3-10.8 20.1-22.5 20.1s-21.1-8.8-22.5-20.1c-10.6 2.5-20.5 6.7-29.5 12.2 7 8.9 6.5 21.8-1.7 30.1-8.2 8.2-21.2 8.7-30.1 1.7-5.6 9-9.8 18.9-12.2 29.5 11.3 1.3 20.1 10.8 20.1 22.5s-8.8 21.1-20.1 22.5c2.5 10.6 6.7 20.5 12.2 29.5 8.9-7 21.8-6.5 30.1 1.7 8.2 8.2 8.7 21.2 1.7 30.1 9 5.6 18.9 9.8 29.5 12.2 1.3-11.3 10.8-20.1 22.5-20.1s21.1 8.8 22.5 20.1c10.6-2.5 20.5-6.7 29.5-12.2-7-8.9-6.5-21.8 1.7-30.1 8.2-8.2 21.2-8.7 30.1-1.7 5.6-9 9.8-18.9 12.3-29.6-10.9-1.6-19.4-11-19.4-22.4zM156 402.4c-24.4 0-44.3-19.9-44.3-44.3s19.9-44.3 44.3-44.3 44.3 19.9 44.3 44.3-19.9 44.3-44.3 44.3zm603.1-68.7c-11 0-20.9 4.8-27.8 12.3l-67.8-33.4c.4-2.1.6-4.2.6-6.4s-.3-4.3-.6-6.4l67.8-33.4c-4.9-5.3-8.3-11.9-9.5-19.3L654 280.5c-6.9-7.5-16.8-12.3-27.8-12.3-21 0-38 17-38 38s17 38 38 38c11 0 20.9-4.8 27.8-12.3l67.8 33.4c-.4 2.1-.6 4.2-.6 6.4 0 21 17 38 38 38s38-17 38-38c-.1-21-17.1-38-38.1-38zm-365.4-25.4h64.6v150.6h-64.6zM307.4 98.2H372V459h-64.6z"/>
  <path class="uiSVGImageBackgroundColor" fill="#fff" d="M479.7 202.8h64.6V459h-64.6z"/>
  <circle class="uiSVGImageBackgroundColor" cx="1122.9" cy="433.2" r="38" fill="#fff" transform="translate(-363.8 -192.5)"/>
</svg>