<svg xmlns="http://www.w3.org/2000/svg" width="566.93" height="481.89" viewBox="0 0 566.929 481.89" xmlns:xlink="http://www.w3.org/1999/xlink">
	<defs>
		<path id="c" d="M399.78 477.59l137.29-303.15c-55.207-63.15-109.85-95.327-181.64-95.327-161.04 0-283.07 127.39-268.7 287.8 6.09 67.934 27.376 110.68 27.376 110.68h285.68z"/>
		<path id="a" d="M1.964 6.445h564.96v475H1.964z"/>
		<clipPath id="b">
			<use overflow="visible" xlink:href="#a"/>
		</clipPath>
		<radialGradient id="d" cx="311.33" cy="278.35" r="212.9" gradientUnits="userSpaceOnUse">
			<stop stop-color="#EDEEEE" offset=".218"/>
			<stop stop-color="#EDEEEE" offset=".312"/>
			<stop stop-color="#EDEEEE" offset=".327"/>
			<stop stop-color="#F6F6F6" offset=".709"/>
			<stop stop-color="#FFF" offset=".967"/>
		</radialGradient>
	</defs>
	<use width="100%" height="100%" fill="url(#d)" xlink:href="#c" transform="translate(-1.256 1.586)" overflow="visible"/>
	<path class="uiSVGImageBaseColor" fill="#009de0" d="M357.43 82.324c71.79 0 126.43 32.168 181.64 95.336C496.8 67.75 383.88 6.44 293.75 6.44 132.71 6.44-3.64 137.1 2.15 298.04c4.464 123.78 60.53 177.8 60.53 177.8l53.434 1.746s-21.286-39.54-27.375-107.47c-14.376-160.4 107.66-287.8 268.7-287.8" clip-path="url(#b)"/>
	<path class="uiSVGImageBackgroundColor" clip-path="url(#b)" fill="#fff" d="M272.44 268.2c11.575-5.352 20.598 17.488 20.598 17.488s-26.078-8.9-20.597-17.487zm212.84 140.36c4.98-6.957 5.466-6.715 23.63-11.187 21.09-5.2 55.957-7.708 55.957-147.97-7.965 24.874-18.652 66.65-56.703 90.522 21.63-31.328 88.777-120.86-18.887-238.55-1.25 99.782-9.457 100.28-21.402 128.13-11.934 27.855-57.14 39.793-57.195 157.17-5.473 15.152-39.238 28.246-57.54 2.953-15.495-28.547-24.026-63.637-24.026-63.637s34.82 0 41.277-18.9c-63.346 12.19-65.59-46.747-90.213-49.73-12.41-1.505-25.887-3.496-25.887-3.496s-41.99-43.25-58.403-4.958c15.414-11.935 49.726 32.323 47.437 35.437-2.293 3.102-37.074.687-42.21.374-5.14-.31-8.21 7.95-8.21 7.95s18.89.745 27.97 3.484c9.345 2.816 35.126 27.727 37.462 55.28 3.524 54.544-67.676 79.755-75.324 35.243-9.555-39.47 9.387-77.594-57.203-157.17-19.455-23.238-20.143-28.35-21.4-128.13-107.66 117.69-40.52 207.22-18.888 238.55-38.05-23.87-48.746-65.648-56.7-90.523 0 140.26 34.856 142.77 55.954 147.97 18.148 4.472 26.554 6.218 23.617 11.187-13.918 3.98-47.246-1.238-60.176-20.14 14.867 136.43 125.28 52.47 125.28 52.47S172 463.275 120.22 479.19h357.6s-40.727-5.48-47.25-34.82c27.348 22.377 97.973 40.04 114.89-55.955-12.937 18.902-46.258 24.12-60.187 20.14"/>
	<path class="uiSVGImageLineColor" fill="#505156" d="M272.44 268.2l.567 1.22c1.05-.485 2.03-.688 2.984-.688 2.02-.004 4.034.95 5.95 2.547 2.87 2.38 5.38 6.132 7.12 9.272.874 1.566 1.562 2.984 2.026 4.008.234.504.41.918.527 1.195l.18.426 1.246-.49.433-1.27s-.316-.11-.89-.32c-2-.735-7.064-2.704-11.544-5.278-2.24-1.285-4.33-2.727-5.79-4.176-1.484-1.462-2.238-2.868-2.22-3.997.005-.556.146-1.1.548-1.728l-1.136-.723.567 1.22-.567-1.22-1.128-.724c-.645 1.004-.973 2.098-.97 3.172.028 2.594 1.68 4.738 3.786 6.62 3.21 2.833 7.79 5.208 11.603 6.927 3.816 1.72 6.848 2.753 6.875 2.762l2.75.937-1.066-2.7c-.02-.05-1.85-4.69-4.974-9.4-1.563-2.357-3.45-4.736-5.66-6.58-2.2-1.832-4.778-3.168-7.665-3.17-1.342 0-2.733.295-4.112.936l-.354.164-.21.332 1.128.72zm212.84 140.36l1.095.78c1.234-1.726 2.168-2.96 3.094-3.878 1.385-1.367 2.787-2.175 5.71-3.14 2.913-.95 7.237-1.97 14.05-3.65 5.215-1.284 11.49-2.433 17.93-5.69 9.684-4.887 19.54-14.582 26.836-36.06 7.313-21.49 12.207-54.835 12.21-107.52v-8.593l-2.62 8.187c-7.973 24.948-18.61 66.265-56.133 89.79l.71 1.14 1.106.76c12.565-18.214 40.82-56.437 40.823-108.65.008-37.525-14.633-82.18-59.82-131.56l-2.293-2.505-.046 3.39c-.62 49.856-2.996 74.86-6.656 90.76-3.652 15.878-8.598 22.8-14.637 36.87-5.682 13.418-20.002 23.496-32.967 44.844-12.94 21.365-24.313 54-24.336 112.85h1.344l-1.265-.46c-1.45 4.062-5.32 8.206-10.563 11.27-5.237 3.065-11.808 5.062-18.534 5.058-9.297-.02-18.852-3.727-26.09-13.7l-1.086.786 1.18-.64c-7.688-14.164-13.676-30.013-17.73-42.302-2.027-6.145-3.57-11.405-4.61-15.125-1.034-3.72-1.558-5.88-1.562-5.887l-1.305.316v1.348c.063 0 8.848.004 18.543-2.402 4.848-1.21 9.93-3.016 14.285-5.784 4.34-2.763 7.985-6.544 9.72-11.63l.746-2.188-2.27.438c-5.85 1.125-11.153 1.63-15.98 1.63-11.704-.005-20.614-2.966-27.853-7.442-10.844-6.72-17.922-16.96-24.406-25.938-3.25-4.49-6.347-8.656-9.772-11.895-3.414-3.227-7.23-5.555-11.785-6.106-6.195-.745-12.656-1.62-17.574-2.305-4.915-.69-8.27-1.185-8.28-1.188l-.198 1.332.964-.938c-.035-.035-5.125-5.272-12.5-10.543-7.387-5.258-17.035-10.613-26.484-10.64-4.176-.008-8.328 1.093-12.047 3.757-3.723 2.66-6.985 6.836-9.57 12.88l-2.043 4.76 4.1-3.17c1.583-1.224 3.333-1.75 5.35-1.76 3.608-.014 8.05 1.86 12.57 4.892 6.788 4.527 13.75 11.543 18.956 17.836 2.61 3.152 4.785 6.125 6.285 8.496.75 1.184 1.333 2.224 1.712 3.03.383.79.528 1.42.508 1.454h.656l-.505-.375-.152.375h.656l-.505-.375v-.004l.235.175-.176-.24-.058.064.235.175-.175-.238c-.034.043-.507.263-1.21.406-2.148.48-6.355.684-11.156.68-11.083 0-25.56-.987-28.74-1.184l-.226-.016.222.014-.356-.015c-1.613 0-3.02.65-4.156 1.518-3.363 2.63-4.973 7.224-5.04 7.318l-.648 1.737 1.856.07c.004 0 1.164.047 3.066.16 5.688.328 18.04 1.285 24.57 3.27 2.004.595 5.32 2.598 8.993 5.695 11.106 9.29 25.86 28.324 27.52 48.414l1.34-.112-1.34.09c.08 1.285.12 2.552.12 3.805 0 16.08-6.686 29.27-16.057 38.484-9.368 9.217-21.44 14.38-31.966 14.368-6.05 0-11.57-1.676-15.9-5.184-4.327-3.512-7.538-8.887-8.862-16.55l-.008-.048-.01-.043c-4.72-19.415-2.384-38.84-7.197-63.48-4.824-24.642-16.875-54.325-50.28-94.23-9.704-11.642-14.466-18.275-17.227-34.724-2.735-16.46-3.23-42.688-3.856-92.57l-.043-3.39-2.288 2.502c-45.193 49.37-59.834 94.03-59.826 131.55.004 52.214 28.258 90.437 40.828 108.65l1.102-.762.718-1.14c-37.53-23.52-48.18-64.84-56.14-89.79l-2.626-8.2v8.61c.01 70.242 8.687 106.12 20.26 125.32 5.787 9.606 12.345 14.996 18.787 18.254 6.436 3.258 12.713 4.406 17.93 5.69 7.89 1.95 13.936 3.384 17.893 4.747 1.977.677 3.43 1.353 4.27 1.96.86.647.996 1.034 1.004 1.385 0 .24-.086.604-.387 1.112l1.157.684-.367-1.29c-2.696.773-6.282 1.2-10.352 1.2-7.856 0-17.523-1.573-26.422-4.98-8.906-3.4-17.016-8.64-21.926-15.826l-3.023-4.415.582 5.32c3.347 30.744 11.53 50.53 22.41 62.697 10.87 12.168 24.43 16.543 37.96 16.527 16.67-.012 33.38-6.492 45.965-12.93 12.586-6.445 21.043-12.87 21.086-12.902l-.81-1.07-1.342-.09v.016c-.05.414-.695 5.797-7.515 13.05-6.824 7.25-19.887 16.38-44.81 24.036l-8.553 2.634h366.55l.172-2.673s-.59-.08-1.696-.283c-3.86-.707-13.688-2.9-23.16-8.04-9.492-5.152-18.523-13.14-21.254-25.46l-1.313.293-.853 1.034c11.516 9.41 30.332 17.933 49.91 17.944 13.957.01 28.32-4.398 40.375-16.005 12.063-11.6 21.773-30.29 26.78-58.696l1.08-6.116-3.51 5.125c-4.917 7.186-13.026 12.424-21.933 15.826-8.9 3.405-18.567 4.98-26.423 4.98-4.07 0-7.66-.43-10.355-1.2l-.37 1.29 1.095.78-1.094-.78-.366 1.292c3.035.866 6.832 1.296 11.094 1.3 8.208-.004 18.134-1.616 27.38-5.155 9.238-3.54 17.828-8.997 23.19-16.82l-1.11-.76-1.32-.226c-4.943 28.027-14.467 46.138-25.994 57.224-11.53 11.077-25.105 15.24-38.516 15.25-18.78.02-37.188-8.302-48.21-17.332l-3.005-2.457.844 3.786c3.413 15.28 15.65 24.233 26.82 29.347 11.2 5.125 21.48 6.496 21.56 6.516l.182-1.332v-1.343h-357.61v1.344l.394 1.286c26.05-8.012 39.606-17.69 46.657-25.504 7.058-7.807 7.554-13.745 7.562-13.99l.195-2.945-2.347 1.784c0 .004-.5.388-1.473 1.074-6.77 4.848-36 24.254-63.953 24.21-12.98-.015-25.61-4.08-35.96-15.632-10.353-11.557-18.43-30.784-21.743-61.198l-1.336.145-1.11.757c5.36 7.824 13.946 13.282 23.184 16.82 9.25 3.54 19.18 5.152 27.383 5.156 4.258-.003 8.05-.433 11.09-1.3l.512-.147.273-.462c.465-.783.758-1.612.758-2.48.008-1.48-.903-2.702-2.114-3.553-1.843-1.316-4.617-2.31-8.46-3.417-3.836-1.096-8.723-2.264-14.633-3.725-5.334-1.31-11.326-2.426-17.36-5.483-9.017-4.586-18.314-13.48-25.502-34.524-7.164-21.034-12.074-54.14-12.07-106.66h-1.344l-1.277.41c7.94 24.79 18.69 67.036 57.266 91.25l5.527 3.47-3.712-5.366c-12.59-18.24-40.336-55.89-40.334-107.13.008-36.8 14.282-80.71 59.116-129.74l-.99-.91-1.342.015c.632 49.9 1.11 76.12 3.894 92.976 2.762 16.86 8.07 24.402 17.813 36.003 33.19 39.675 44.96 68.84 49.707 93.023 4.754 24.18 2.394 43.546 7.222 63.598l1.31-.312-1.325.223c1.397 8.178 4.93 14.23 9.82 18.185 4.88 3.96 11.046 5.79 17.585 5.785 11.394-.008 24.012-5.484 33.848-15.137 9.833-9.652 16.868-23.56 16.864-40.402 0-1.31-.043-2.636-.13-3.976v-.01l-.003-.02c-1.206-14.16-8.374-27.47-16.382-37.638-4.01-5.082-8.238-9.38-12.086-12.605-3.863-3.226-7.277-5.39-9.94-6.213-4.74-1.418-11.755-2.282-17.657-2.82-5.896-.528-10.638-.723-10.654-.723l-.05 1.347 1.257.47.117-.293c.285-.7 1.117-2.52 2.328-4.078.597-.78 1.293-1.488 2.01-1.97.732-.484 1.45-.746 2.22-.75l.195.01c3.168.193 17.684 1.19 28.903 1.193 3.472-.005 6.633-.098 9.09-.344 1.23-.13 2.28-.294 3.152-.525.867-.262 1.59-.46 2.227-1.246h.003c.313-.435.368-.876.368-1.22-.04-1.133-.524-2.16-1.27-3.605-2.64-4.902-9.18-13.438-16.945-20.895-3.88-3.722-8.06-7.152-12.222-9.69-4.172-2.524-8.332-4.192-12.277-4.204-2.507-.004-4.93.72-6.995 2.32l.824 1.063 1.233.53c2.45-5.71 5.43-9.443 8.66-11.755 3.243-2.31 6.762-3.25 10.49-3.254 8.397-.026 17.76 5 24.92 10.138 3.587 2.56 6.633 5.13 8.774 7.05 1.07.962 1.914 1.76 2.492 2.317.573.56.866.863.87.863l.317.328.45.063c.007 0 13.483 2 25.925 3.503 5.065.61 9.225 3.86 13.4 8.716 6.26 7.252 12.278 17.88 21.298 26.756 9.012 8.875 21.188 15.945 39.438 15.926 5.016 0 10.492-.524 16.488-1.68l-.254-1.32-1.27-.43c-1.492 4.362-4.625 7.675-8.625 10.226-5.988 3.824-13.867 5.81-20.23 6.785-3.184.49-5.98.736-7.98.86-.996.06-1.797.094-2.344.105-.546.017-.827.017-.827.017h-1.71l.405 1.66c.02.058 8.548 35.194 24.153 63.956l.04.08.05.07c7.71 10.68 18.258 14.83 28.266 14.81 7.257 0 14.25-2.13 19.886-5.43 5.637-3.307 9.957-7.767 11.742-12.674l.074-.218v-.23c.038-58.532 11.3-90.556 23.948-111.46 12.637-20.933 26.887-30.754 33.14-45.18 5.907-13.793 11.036-21.04 14.782-37.32 3.742-16.262 6.098-41.402 6.73-91.328l-1.344-.016-.988.91c44.84 49.027 59.105 92.937 59.113 129.75.005 51.234-27.737 88.882-40.343 107.13l-3.703 5.365 5.52-3.47c38.578-24.214 49.316-66.464 57.27-91.25l-1.277-.41h-1.344c.012 70.024-8.742 105.53-19.88 123.94-5.565 9.21-11.675 14.19-17.702 17.244-6.03 3.058-12.022 4.175-17.35 5.483-9.08 2.242-13.735 3.28-16.993 4.746-1.62.734-2.894 1.613-4.022 2.738-1.137 1.134-2.13 2.478-3.387 4.228l-1.104 1.552 1.832.52.367-1.294"/>
</svg>